<svg width="58" height="58" viewBox="0 0 58 58" fill="none" xmlns="http://www.w3.org/2000/svg">
<rect width="58" height="58" rx="29" fill="black" fill-opacity="0.4"/>
<rect width="58" height="58" rx="29" fill="#6F67FF"/>
<path d="M31.6209 34.9146L20.9409 32.0016M25.9989 25.0176C24.1949 27.7276 22.0289 28.4776 19.4159 28.9656C19.3293 28.9814 19.2482 29.0195 19.1808 29.0762C19.1133 29.1329 19.0618 29.2062 19.0313 29.2889C19.0008 29.3716 18.9924 29.4608 19.0069 29.5477C19.0214 29.6346 19.0583 29.7162 19.1139 29.7846L26.4339 38.6676C26.5826 38.8255 26.7786 38.9308 26.9924 38.9676C27.2061 39.0044 27.426 38.9707 27.6189 38.8716C29.7339 37.4226 32.9989 33.8096 32.9989 32.0176M35.3749 19.6396C35.5721 19.4424 35.8061 19.2861 36.0636 19.1794C36.3212 19.0727 36.5972 19.0178 36.8759 19.0178C37.1547 19.0178 37.4307 19.0727 37.6883 19.1794C37.9458 19.2861 38.1798 19.4424 38.3769 19.6396C38.5741 19.8367 38.7304 20.0707 38.8371 20.3282C38.9438 20.5858 38.9987 20.8618 38.9987 21.1406C38.9987 21.4193 38.9438 21.6954 38.8371 21.9529C38.7304 22.2104 38.5741 22.4444 38.3769 22.6416L34.3589 26.6606C34.2652 26.7543 34.2126 26.8815 34.2126 27.0141C34.2126 27.1466 34.2652 27.2738 34.3589 27.3676L35.3029 28.3116C35.7548 28.7635 36.0087 29.3764 36.0087 30.0156C36.0087 30.6547 35.7548 31.2676 35.3029 31.7196L34.3589 32.6636C34.2652 32.7573 34.138 32.81 34.0054 32.81C33.8729 32.81 33.7457 32.7573 33.6519 32.6636L25.3529 24.3656C25.2592 24.2718 25.2066 24.1446 25.2066 24.0121C25.2066 23.8795 25.2592 23.7523 25.3529 23.6586L26.2969 22.7146C26.7489 22.2627 27.3618 22.0088 28.0009 22.0088C28.6401 22.0088 29.253 22.2627 29.7049 22.7146L30.6489 23.6586C30.7427 23.7523 30.8699 23.8049 31.0024 23.8049C31.135 23.8049 31.2622 23.7523 31.3559 23.6586L35.3749 19.6396Z" stroke="white" stroke-opacity="0.9" stroke-width="2" stroke-linecap="round" stroke-linejoin="round"/>
</svg>
