<svg width="58" height="58" viewBox="0 0 58 58" fill="none" xmlns="http://www.w3.org/2000/svg">
<rect width="58" height="58" rx="29" fill="black" fill-opacity="0.4"/>
<rect width="58" height="58" rx="29" fill="#6F67FF"/>
<path d="M28.75 32.2501L25.75 29.2501M28.75 32.2501C30.1468 31.7189 31.4869 31.0488 32.75 30.2501M28.75 32.2501V37.2501C28.75 37.2501 31.78 36.7001 32.75 35.2501C33.83 33.6301 32.75 30.2501 32.75 30.2501M25.75 29.2501C26.2821 27.8696 26.9522 26.5462 27.75 25.3001C28.9152 23.4371 30.5376 21.9032 32.463 20.8442C34.3884 19.7853 36.5527 19.2365 38.75 19.2501C38.75 21.9701 37.97 26.7501 32.75 30.2501M25.75 29.2501H20.75C20.75 29.2501 21.3 26.2201 22.75 25.2501C24.37 24.1701 27.75 25.2501 27.75 25.2501M21.25 33.7501C19.75 35.0101 19.25 38.7501 19.25 38.7501C19.25 38.7501 22.99 38.2501 24.25 36.7501C24.96 35.9101 24.95 34.6201 24.16 33.8401C23.7713 33.4691 23.2593 33.2548 22.7222 33.2382C22.1852 33.2215 21.6609 33.4039 21.25 33.7501Z" stroke="white" stroke-opacity="0.9" stroke-width="2" stroke-linecap="round" stroke-linejoin="round"/>
</svg>
