<svg width="58" height="58" viewBox="0 0 58 58" fill="none" xmlns="http://www.w3.org/2000/svg">
<rect width="58" height="58" rx="29" fill="black" fill-opacity="0.4"/>
<rect width="58" height="58" rx="29" fill="#6F67FF"/>
<path d="M27 28L25 30.5L27 33M31 28L33 30.5L31 33M37 37.5C37.5304 37.5 38.0391 37.2893 38.4142 36.9142C38.7893 36.5391 39 36.0304 39 35.5V25.5C39 24.9696 38.7893 24.4609 38.4142 24.0858C38.0391 23.7107 37.5304 23.5 37 23.5H29.1C28.7655 23.5033 28.4355 23.4226 28.1403 23.2654C27.8451 23.1081 27.594 22.8794 27.41 22.6L26.6 21.4C26.4179 21.1235 26.17 20.8965 25.8785 20.7394C25.587 20.5823 25.2611 20.5001 24.93 20.5H21C20.4696 20.5 19.9609 20.7107 19.5858 21.0858C19.2107 21.4609 19 21.9696 19 22.5V35.5C19 36.0304 19.2107 36.5391 19.5858 36.9142C19.9609 37.2893 20.4696 37.5 21 37.5H37Z" stroke="white" stroke-opacity="0.9" stroke-width="2" stroke-linecap="round" stroke-linejoin="round"/>
</svg>
