<svg width="60" height="60" viewBox="0 0 60 60" fill="none" xmlns="http://www.w3.org/2000/svg">
<g clip-path="url(#clip0_1046_11)">
<path d="M0 30C0 18.7846 0 13.1769 2.41154 9C3.99136 6.26366 6.26366 3.99136 9 2.41154C13.1769 0 18.7846 0 30 0C41.2154 0 46.8231 0 51 2.41154C53.7363 3.99136 56.0086 6.26366 57.5884 9C60 13.1769 60 18.7846 60 30C60 41.2154 60 46.8231 57.5884 51C56.0086 53.7363 53.7363 56.0086 51 57.5884C46.8231 60 41.2154 60 30 60C18.7846 60 13.1769 60 9 57.5884C6.26366 56.0086 3.99136 53.7363 2.41154 51C0 46.8231 0 41.2154 0 30Z" fill="#6F67FF"/>
<path fill-rule="evenodd" clip-rule="evenodd" d="M42.0661 11.4139C43.3302 10.205 45.3228 10.1995 46.5933 11.3734L46.7137 11.4901L47.1246 11.9209C51.2866 16.3977 52.8376 21.6147 52.4398 26.7097C52.0362 31.8766 49.6518 36.7491 46.3254 40.5996C43.0009 44.4474 38.5626 47.4779 33.765 48.7931C28.9071 50.1246 23.5941 49.7001 18.982 46.4444C15.0703 43.6827 13.5811 39.2197 13.4799 34.8841C11.2848 33.8076 8.97519 32.4694 6.55183 30.8423L5.9115 30.4074L5.77509 30.309C4.39927 29.2579 4.08469 27.3126 5.08741 25.8846C6.09043 24.4564 8.04349 24.069 9.51997 24.9768L9.66201 25.0689L10.2454 25.4657C11.6971 26.4404 13.0823 27.2854 14.3995 28.0151C15.2491 25.0334 16.657 22.1703 18.5119 19.8105C21.2907 16.2752 25.4569 13.4479 30.561 13.8697C35.1585 14.2499 38.5554 16.6215 40.3087 19.9683C42.0066 23.2092 42.0316 27.1078 40.5478 30.4605C39.0351 33.8785 35.964 36.726 31.5463 37.8993C28.3671 38.7436 24.6426 38.6857 20.44 37.555V37.5566C18.7672 37.1063 17.014 36.4845 15.1818 35.6769C14.7708 35.4957 14.4131 35.7724 15.1818 36.2529C17.3454 37.7886 20.3934 39.0757 21.2754 39.5077C21.6922 40.182 22.2091 40.7352 22.8016 41.1534C25.5282 43.0782 28.7176 43.4309 32.0094 42.5285C35.3614 41.6096 38.7211 39.3938 41.3271 36.3774C43.9309 33.3635 45.6097 29.7522 45.8863 26.2091C46.1475 22.8659 45.1827 19.4314 42.2763 16.3104L41.989 16.0097L41.8743 15.8859C40.7307 14.5912 40.8027 12.6227 42.0661 11.4139ZM30.0138 20.3477C27.9049 20.1734 25.6794 21.2835 23.7019 23.7993C22.1959 25.7154 21.0564 28.205 20.4754 30.7668C24.6139 32.1816 27.6982 32.1912 29.8413 31.6221C32.3221 30.9633 33.8098 29.4715 34.5258 27.854C35.2705 26.1708 35.1942 24.3368 34.4719 22.9583C33.8053 21.6856 32.4633 20.5503 30.0138 20.3477Z" fill="white"/>
</g>
<defs>
<clipPath id="clip0_1046_11">
<rect width="60" height="60" fill="white"/>
</clipPath>
</defs>
</svg>
